<?xml version="1.0" encoding="UTF-8" standalone="no"?>
<!-- Shuttle SVG exported for editing; IDs correspond to game parts -->

<svg
   id="shuttleSvg"
   viewBox="0 0 600 320"
   version="1.1"
   sodipodi:docname="shuttle.svg"
   inkscape:version="1.4 (e7c3feb1, 2024-10-09)"
   xmlns:inkscape="http://www.inkscape.org/namespaces/inkscape"
   xmlns:sodipodi="http://sodipodi.sourceforge.net/DTD/sodipodi-0.dtd"
   xmlns:xlink="http://www.w3.org/1999/xlink"
   xmlns="http://www.w3.org/2000/svg"
   xmlns:svg="http://www.w3.org/2000/svg">
  <sodipodi:namedview
     id="namedview7"
     pagecolor="#ffffff"
     bordercolor="#000000"
     borderopacity="0.25"
     inkscape:showpageshadow="2"
     inkscape:pageopacity="0.0"
     inkscape:pagecheckerboard="0"
     inkscape:deskcolor="#d1d1d1"
     inkscape:zoom="0.96484498"
     inkscape:cx="227.49769"
     inkscape:cy="139.40063"
     inkscape:window-width="1296"
     inkscape:window-height="860"
     inkscape:window-x="221"
     inkscape:window-y="34"
     inkscape:window-maximized="0"
     inkscape:current-layer="shuttleSvg" />
  <defs
     id="defs2">
    <inkscape:path-effect
       effect="bspline"
       id="path-effect15"
       is_visible="true"
       lpeversion="1.3"
       weight="33.333333"
       steps="2"
       helper_size="0"
       apply_no_weight="true"
       apply_with_weight="true"
       only_selected="false"
       uniform="false" />
    <inkscape:path-effect
       effect="bspline"
       id="path-effect14"
       is_visible="true"
       lpeversion="1.3"
       weight="33.333333"
       steps="2"
       helper_size="0"
       apply_no_weight="true"
       apply_with_weight="true"
       only_selected="false"
       uniform="false" />
    <inkscape:path-effect
       effect="bspline"
       id="path-effect13"
       is_visible="true"
       lpeversion="1.3"
       weight="33.333333"
       steps="2"
       helper_size="0"
       apply_no_weight="true"
       apply_with_weight="true"
       only_selected="false"
       uniform="false" />
    <inkscape:path-effect
       effect="bspline"
       id="path-effect9"
       is_visible="true"
       lpeversion="1.3"
       weight="33.333333"
       steps="2"
       helper_size="0"
       apply_no_weight="true"
       apply_with_weight="true"
       only_selected="false"
       uniform="false" />
    <inkscape:path-effect
       effect="bspline"
       id="path-effect7"
       is_visible="true"
       lpeversion="1.3"
       weight="33.333333"
       steps="2"
       helper_size="0"
       apply_no_weight="true"
       apply_with_weight="true"
       only_selected="false"
       uniform="false" />
    <inkscape:path-effect
       effect="bspline"
       id="path-effect6"
       is_visible="true"
       lpeversion="1.3"
       weight="33.333333"
       steps="2"
       helper_size="0"
       apply_no_weight="true"
       apply_with_weight="true"
       only_selected="false"
       uniform="false" />
    <linearGradient
       id="linearGradient5"
       inkscape:collect="always">
      <stop
         style="stop-color:#e6e6e6;stop-opacity:1;"
         offset="0.38640431"
         id="stop5" />
      <stop
         style="stop-color:#3d3d3d;stop-opacity:0.49803922;"
         offset="0.72808588"
         id="stop7" />
      <stop
         style="stop-color:#e6e6e6;stop-opacity:0;"
         offset="1"
         id="stop6" />
    </linearGradient>
    <inkscape:path-effect
       effect="bspline"
       id="path-effect5"
       is_visible="true"
       lpeversion="1.3"
       weight="33.333333"
       steps="2"
       helper_size="0"
       apply_no_weight="true"
       apply_with_weight="true"
       only_selected="false"
       uniform="false" />
    <inkscape:path-effect
       effect="bspline"
       id="path-effect4"
       is_visible="true"
       lpeversion="1.3"
       weight="33.333333"
       steps="2"
       helper_size="0"
       apply_no_weight="true"
       apply_with_weight="true"
       only_selected="false"
       uniform="false" />
    <inkscape:path-effect
       effect="bspline"
       id="path-effect3"
       is_visible="true"
       lpeversion="1.3"
       weight="33.333333"
       steps="2"
       helper_size="0"
       apply_no_weight="true"
       apply_with_weight="true"
       only_selected="false"
       uniform="false" />
    <inkscape:path-effect
       effect="fillet_chamfer"
       id="path-effect2"
       is_visible="true"
       lpeversion="1"
       nodesatellites_param="F,0,0,1,0,0,0,1 @ F,0,0,1,0,0,0,1 @ F,0,0,1,0,0,0,1"
       radius="0"
       unit="px"
       method="auto"
       mode="F"
       chamfer_steps="1"
       flexible="false"
       use_knot_distance="true"
       apply_no_radius="true"
       apply_with_radius="true"
       only_selected="false"
       hide_knots="false" />
    <inkscape:path-effect
       effect="fillet_chamfer"
       id="path-effect1"
       is_visible="true"
       lpeversion="1"
       nodesatellites_param="F,0,0,1,0,0,0,1 @ F,0,0,1,0,0,0,1 @ F,0,0,1,0,0,0,1"
       radius="0"
       unit="px"
       method="auto"
       mode="F"
       chamfer_steps="1"
       flexible="false"
       use_knot_distance="true"
       apply_no_radius="true"
       apply_with_radius="true"
       only_selected="false"
       hide_knots="false" />
    <inkscape:path-effect
       effect="bspline"
       id="path-effect12"
       is_visible="true"
       lpeversion="1.3"
       weight="33.333333"
       steps="2"
       helper_size="0"
       apply_no_weight="true"
       apply_with_weight="true"
       only_selected="false"
       uniform="false" />
    <inkscape:path-effect
       effect="bspline"
       id="path-effect11"
       is_visible="true"
       lpeversion="1.3"
       weight="33.333333"
       steps="2"
       helper_size="0"
       apply_no_weight="true"
       apply_with_weight="true"
       only_selected="false"
       uniform="false" />
    <inkscape:path-effect
       effect="bspline"
       id="path-effect10"
       is_visible="true"
       lpeversion="1.3"
       weight="33.333333"
       steps="2"
       helper_size="0"
       apply_no_weight="true"
       apply_with_weight="true"
       only_selected="false"
       uniform="false" />
    <inkscape:path-effect
       effect="bspline"
       id="path-effect8"
       is_visible="true"
       lpeversion="1.3"
       weight="33.333333"
       steps="2"
       helper_size="0"
       apply_no_weight="true"
       apply_with_weight="true"
       only_selected="false"
       uniform="false" />
    <linearGradient
       id="bodyGradient"
       x1="0"
       y1="0"
       x2="1"
       y2="0">
      <stop
         offset="0%"
         stop-color="#f5f7fb"
         id="stop1" />
      <stop
         offset="100%"
         stop-color="#d1d9e8"
         id="stop2" />
    </linearGradient>
    <linearGradient
       inkscape:collect="always"
       xlink:href="#bodyGradient"
       id="linearGradient7"
       x1="262.29468"
       y1="59.05114"
       x2="303.52055"
       y2="60.201584"
       gradientTransform="matrix(0.60774276,0,0,1.1085209,-69.429567,3.7084717)"
       gradientUnits="userSpaceOnUse" />
    <linearGradient
       inkscape:collect="always"
       xlink:href="#bodyGradient"
       id="linearGradient8"
       x1="60.179717"
       y1="143.42695"
       x2="332.79578"
       y2="143.42695"
       gradientTransform="matrix(1.4789036,0,0,0.67617659,55.703841,-17.791338)"
       gradientUnits="userSpaceOnUse" />
    <inkscape:path-effect
       effect="bspline"
       id="path-effect10-3"
       is_visible="true"
       lpeversion="1.3"
       weight="33.333333"
       steps="2"
       helper_size="0"
       apply_no_weight="true"
       apply_with_weight="true"
       only_selected="false"
       uniform="false" />
    <inkscape:path-effect
       effect="bspline"
       id="path-effect10-3-0"
       is_visible="true"
       lpeversion="1.3"
       weight="33.333333"
       steps="2"
       helper_size="0"
       apply_no_weight="true"
       apply_with_weight="true"
       only_selected="false"
       uniform="false" />
    <inkscape:path-effect
       effect="bspline"
       id="path-effect10-5"
       is_visible="true"
       lpeversion="1.3"
       weight="33.333333"
       steps="2"
       helper_size="0"
       apply_no_weight="true"
       apply_with_weight="true"
       only_selected="false"
       uniform="false" />
    <inkscape:path-effect
       effect="bspline"
       id="path-effect10-3-0-7"
       is_visible="true"
       lpeversion="1.3"
       weight="33.333333"
       steps="2"
       helper_size="0"
       apply_no_weight="true"
       apply_with_weight="true"
       only_selected="false"
       uniform="false" />
    <inkscape:path-effect
       effect="bspline"
       id="path-effect10-5-3"
       is_visible="true"
       lpeversion="1.3"
       weight="33.333333"
       steps="2"
       helper_size="0"
       apply_no_weight="true"
       apply_with_weight="true"
       only_selected="false"
       uniform="false" />
    <linearGradient
       inkscape:collect="always"
       xlink:href="#linearGradient5"
       id="linearGradient6"
       x1="120.04208"
       y1="92.125076"
       x2="120.04208"
       y2="175.76433"
       gradientUnits="userSpaceOnUse" />
    <inkscape:path-effect
       effect="fillet_chamfer"
       id="path-effect1-7"
       is_visible="true"
       lpeversion="1"
       nodesatellites_param="F,0,0,1,0,0,0,1 @ F,0,0,1,0,0,0,1 @ F,0,0,1,0,0,0,1"
       radius="0"
       unit="px"
       method="auto"
       mode="F"
       chamfer_steps="1"
       flexible="false"
       use_knot_distance="true"
       apply_no_radius="true"
       apply_with_radius="true"
       only_selected="false"
       hide_knots="false" />
    <inkscape:path-effect
       effect="bspline"
       id="path-effect14-3"
       is_visible="true"
       lpeversion="1.3"
       weight="33.333333"
       steps="2"
       helper_size="0"
       apply_no_weight="true"
       apply_with_weight="true"
       only_selected="false"
       uniform="false" />
  </defs>
  <!-- Shadow on pad -->
  <!-- Main fuselage (part-fuselage) -->
  <path
     id="tail-fin"
     class="shuttle-part fuselage"
     d="M 79.810984,109.65072 35.927426,9.1511822 61.192835,10.070128 167.2602,100.63353 Z"
     fill="url(#bodyGradient)"
     stroke="#09162b"
     stroke-width="1.64158"
     style="fill:url(#linearGradient7)"
     sodipodi:nodetypes="ccccc" />
  <polygon
     id="launchFlame"
     class="launch-flame hidden"
     points="80,190 60,205 70,220 "
     fill="#ffa500"
     opacity="0.9"
     transform="matrix(-1.0584797,-0.51757908,0.68877567,-0.52215603,-16.283765,267.78134)" />
  <rect
     id="part-engine"
     class="shuttle-part engine"
     x="74.326515"
     y="105.83379"
     width="65.565857"
     height="40.000008"
     rx="6"
     fill="#9ea8b8"
     stroke="#09162b"
     stroke-width="1" />
  <circle
     cx="79.203873"
     cy="140.6044"
     r="7"
     fill="#555b6b"
     class="shuttle-part"
     id="circle2" />
  <circle
     cx="78.390251"
     cy="126.35667"
     r="8"
     fill="#555b6b"
     class="shuttle-part"
     id="circle3" />
  <circle
     cx="78.510071"
     cy="112.25686"
     r="7"
     fill="#555b6b"
     id="circle4"
     class="shuttle-part" />
  <!-- Nose cone (part-nose) -->
  <path
     id="part-nose"
     class="shuttle-part nose"
     d="m 514.48732,134.70147 c 36.67195,15.57668 48.32118,30.11806 59.00864,43.40594 -4.58399,15.57668 -42.49302,43.49698 -61.8839,43.55597 -4.58399,-15.57668 -6.87598,-27.97929 -6.87598,-43.55597 0,-15.57668 5.16725,-27.82926 9.75124,-43.40594 z"
     fill="#d1d9e8"
     stroke="#09162b"
     stroke-width="1.26751"
     sodipodi:nodetypes="cccsc" />
  <!-- Delta wings + wing tips (part-wingtips) -->
  <!-- Insulation / tile band (part-insulation) -->
  <path
     style="fill:#000000;stroke:#000000;stroke-width:2.221;stroke-linecap:round"
     d="M 48.572373,11.235008 C 62.033317,42.781121 75.494262,74.327236 88.955207,105.87335"
     id="path8"
     class="shuttle-part"
     inkscape:path-effect="#path-effect8"
     inkscape:original-d="M 48.572373,11.235008 C 62.033317,42.781121 88.955207,105.87335 88.955207,105.87335"
     sodipodi:nodetypes="cc" />
  <path
     id="part-insulation"
     class="shuttle-part insulation"
     d="m 162.57226,94.17195 c 76.92539,-5.820141 163.12015,-5.688029 275.49703,-4.254717"
     fill="none"
     stroke="#ffd27f"
     stroke-width="5.96624"
     stroke-linecap="round"
     sodipodi:nodetypes="cc" />
  <!-- Engine block (part-engine) -->
  <!-- Engine nozzles -->
  <!-- Cockpit windows -->
  <!-- Vertical tail fin tied to fuselage colour -->
  <!-- Flame for launch -->
  <polygon
     id="launchFlame-8-0-2"
     class="launch-flame hidden"
     points="80,190 60,205 70,220 "
     fill="#ffa500"
     opacity="0.9"
     transform="matrix(-0.65675323,-0.40650302,0.44951833,-0.37771998,8.3713755,229.67845)"
     style="opacity:0.79;fill:#ff8600;fill-opacity:1"
     inkscape:path-effect="#path-effect2"
     d="m 80,190 -20,15 10,15 z" />
  <polygon
     id="launchFlame-8"
     class="launch-flame hidden"
     points="60,205 70,220 80,190 "
     fill="#ffa500"
     opacity="0.9"
     transform="matrix(-1.1413442,-0.594039,0.78119922,-0.5519772,-29.976477,299.04559)" />
  <polygon
     id="launchFlame-8-0"
     class="launch-flame hidden"
     points="70,220 80,190 60,205 "
     fill="#ffa500"
     opacity="0.9"
     transform="matrix(-0.72282032,-0.47248467,0.49473827,-0.4390297,3.981884,267.26381)"
     style="opacity:0.73;fill:#ff8600;fill-opacity:1"
     inkscape:path-effect="#path-effect1"
     d="M 70,220 80,190 60,205 Z" />
  <polygon
     id="launchFlame-8-9"
     class="launch-flame hidden"
     points="60,205 70,220 80,190 "
     fill="#ffa500"
     opacity="0.9"
     transform="matrix(-1.3225128,-2.1272942,0.90520108,-1.976668,-62.87061,748.17256)" />
  <path
     style="opacity:0.73;fill:#1a1a1a;fill-opacity:1;stroke:#000000;stroke-width:1.121;stroke-linecap:round"
     d="m 79.562763,175.03808 c -6.061925,0 -12.12385,0 -19.511908,-2.65214 -7.388058,-2.65215 -16.101902,-7.95623 -20.458909,-3.03076 -4.357008,4.92546 -4.357008,20.07997 -0.56823,25.38411 3.788777,5.30414 11.366035,0.75778 18.754077,-1.51544 7.388042,-2.27322 14.586434,-2.27322 21.78497,-2.27322 z"
     id="path2"
     class="shuttle-part"
     inkscape:path-effect="#path-effect3"
     inkscape:original-d="m 79.562763,175.03808 c 0,0 -12.12385,0 -18.185775,0 -8.714191,-5.30429 -17.428033,-10.60837 -26.14205,-15.91255 0,15.15511 0,30.30962 0,45.46443 7.577557,-4.54653 15.154812,-9.09289 22.732218,-13.63933 7.198679,0 21.595607,0 21.595607,0 z"
     inkscape:label="mainengine"
     sodipodi:nodetypes="ccccccc"
     transform="matrix(1.6628874,0,0,2.1828726,-16.255301,-207.80073)" />
  <path
     style="fill:#434343;fill-opacity:1;stroke:#1f232a;stroke-width:0.730747;stroke-linecap:round;stroke-dasharray:none;stroke-opacity:1"
     d="m 76.787551,136.52247 c -1.952231,-1.66323 -5.595886,1.52842 -8.693589,2.53917 -3.097702,1.01075 -5.649208,-0.1595 -6.142805,0.20417 -0.493597,0.36366 1.070721,2.26125 1.019995,3.96268 -0.05073,1.70142 -1.716498,3.20658 -0.711015,3.82814 1.005483,0.62155 4.682214,0.35952 7.961006,0.90651 3.278793,0.54699 6.159353,1.90293 7.469357,-0.67822 1.310005,-2.58115 1.049282,-9.09921 -0.902949,-10.76245 z"
     id="path14-8"
     class="shuttle-part"
     inkscape:path-effect="#path-effect14-3"
     inkscape:original-d="m 78.479054,131.66752 c -3.643733,3.19172 -7.28739,6.38337 -10.931203,9.57516 -2.55159,-1.17029 -5.103097,-2.34054 -7.654605,-3.51079 1.564317,1.89758 3.128634,3.79517 4.693,5.69282 -1.665821,1.5052 -3.33159,3.01036 -4.997359,4.51551 3.676733,-0.26204 7.353464,-0.52407 11.030309,-0.78612 2.880739,1.35603 5.761301,2.71197 8.642042,4.068 -0.260733,-6.51833 -0.521456,-13.03639 -0.782184,-19.55458 z"
     transform="matrix(1.4357099,0,0,1.6391176,-29.261498,-110.69722)"
     sodipodi:nodetypes="cccccccc" />
  <path
     id="part-fuselage"
     class="shuttle-part fuselage"
     d="m 175.70384,92.208662 c 94.6697,-0.242724 247.26189,-8.027446 270,0 10.49577,4.887529 17.18165,15.226988 38.01622,27.193988 20.83457,11.96701 55.81783,25.56156 58.61436,32.67301 5.59305,14.2229 4.17793,31.71231 4.53477,45.04087 0.33042,12.34206 -9.78122,18.26504 -55.53661,29.91824 -42.10507,10.72352 -117.4689,-0.0203 -127.4689,13.313 -86.66667,20 -94.82651,31.86089 -188.15984,11.86089 -5,-6.66667 -8.37434,-20.68062 -19.98765,-24.45137 -74.167583,-24.08156 -72.027664,-21.31696 -72.687104,-27.50054 -2.619136,-44.35554 1.24311,-37.46225 -3.82454,-49.48321 3.97496,-2.11712 -2.729835,-13.89081 -2.161621,-18.35843 1.958996,-15.40274 -10.253009,-24.4687 1.349868,-26.26151 12.987414,-2.00673 30.959067,3.68836 40.157667,-2.86711 9.19859,-6.555472 52.15338,-4.411161 57.15338,-11.077828 z"
     fill="url(#bodyGradient)"
     stroke="#09162b"
     stroke-width="2"
     sodipodi:nodetypes="ccssssccscssssc"
     style="display:inline;fill:url(#linearGradient8)" />
  <rect
     x="392.71088"
     y="185.00911"
     width="46"
     height="18"
     rx="6"
     class="shuttle-part shuttle-window"
     fill="#00172b"
     id="rect4" />
  <rect
     x="353.40292"
     y="186.91336"
     width="30"
     height="14"
     rx="4"
     class="shuttle-part shuttle-window"
     fill="#0b1b2b"
     id="rect5" />
  <path
     id="part-wingtips"
     class="shuttle-part wingtips"
     d="m 92.42482,311.24815 66.96132,1.06191 190.39473,-60.39008 c 51.36757,-8.82525 91.50319,-15.80386 141.77342,-24.64987 -52.03224,4.22726 -94.29495,11.14575 -146.35826,15.06662 l -99.49623,28.17579 -88.26682,29.6784 -59.500391,-2.20547 z"
     fill="#dfe9ff"
     stroke="#09162b"
     stroke-width="2.13733"
     sodipodi:nodetypes="ccccccccc" />
  <path
     style="opacity:0.73;fill:url(#linearGradient6);fill-opacity:1;stroke:#000000;stroke-width:1.121;stroke-linecap:round"
     d="m 78.807012,119.00655 c 17.910686,-0.79603 35.821368,-1.59206 49.751998,-5.2406 13.93063,-3.64853 23.88082,-10.14932 28.85601,-1.59176 4.97519,8.55756 4.97519,32.17266 1.12763,41.79132 -3.84756,9.61865 -11.54237,5.24057 -25.20776,3.11783 -13.66538,-2.12275 -33.3004,-1.99008 -52.935817,-1.85741 z"
     id="path4"
     class="shuttle-part"
     inkscape:path-effect="#path-effect5"
     inkscape:original-d="m 78.807012,119.00655 c 0,0 35.821368,-1.59206 53.732058,-2.38809 9.95057,-6.50104 19.90076,-13.00183 29.85114,-19.502749 0,23.616039 0,47.231139 0,70.846709 -7.69512,-4.37826 -15.38993,-8.75634 -23.08489,-13.1345 -19.63581,0.13267 -58.906247,0.39801 -58.906247,0.39801 z"
     inkscape:label="part-engine-8"
     sodipodi:nodetypes="ccccccc"
     transform="translate(0.39801521,3.5821369)" />
  <path
     id="wing-left"
     class="shuttle-part wingtips"
     d="m 118.4172,232.12145 -29.460813,78.35763 66.082383,0.313 99.99707,-36.49316 99.99705,-24.33203 135.9811,-22.72913 c -129.84832,1.71052 -242.74331,3.51931 -372.59679,4.88369 z"
     fill="#dfe9ff"
     stroke="#09162b"
     stroke-width="3.75719"
     sodipodi:nodetypes="ccccccc" />
  <!-- Explosion group -->
  <g
     id="explosion"
     class="explosion hidden"
     style="display:inline">
    <circle
       cx="260"
       cy="190"
       r="12"
       fill="#ffcc33"
       id="circle5" />
    <circle
       cx="285"
       cy="180"
       r="9"
       fill="#ff9a33"
       id="circle6" />
    <circle
       cx="240"
       cy="180"
       r="8"
       fill="#ff6633"
       id="circle7" />
  </g>
  <path
     style="fill:#000000;stroke:#000000;stroke-width:0.235852;stroke-linecap:round"
     id="path9"
     class="shuttle-part"
     sodipodi:type="arc"
     sodipodi:cx="422.44431"
     sodipodi:cy="96.736931"
     sodipodi:rx="5.249476"
     sodipodi:ry="5.477705"
     sodipodi:start="2.8547152"
     sodipodi:end="2.8512932"
     sodipodi:arc-type="slice"
     d="m 417.40936,98.286895 a 5.249476,5.477705 0 0 1 3.54525,-6.802479 5.249476,5.477705 0 0 1 6.52209,3.693564 5.249476,5.477705 0 0 1 -3.53409,6.8088 5.249476,5.477705 0 0 1 -6.52813,-3.681915 l 5.02983,-1.567934 z" />
  <path
     style="opacity:0.7;fill:#666666;fill-opacity:0.743455;stroke:#000000;stroke-width:1.121;stroke-linecap:round;stroke-dasharray:none"
     d="m 185.69731,135.05822 c 0,0 3.10231,12.10247 3.10231,12.10247 0,0 216.00104,-4.31628 216.00104,-4.31628 0,0 -2.76736,-10.15904 -2.76736,-10.15904 z"
     id="path12"
     class="shuttle-part"
     inkscape:path-effect="#path-effect12"
     inkscape:original-d="m 185.69731,135.05822 3.10231,12.10247 216.00104,-4.31628 -2.76736,-10.15904 z"
     sodipodi:nodetypes="ccccc"
     transform="matrix(1.0296872,0,0,1.2253034,-14.395028,-20.92207)" />
  <path
     style="fill:#000000;stroke:#000000;stroke-width:2.221;stroke-linecap:round"
     d="m 219.83331,92.877905 c 2.93197,6.370321 5.86387,12.740495 8.09121,19.422505 2.22734,6.68202 3.74991,13.67527 5.27252,20.66868"
     id="path10"
     class="shuttle-part"
     inkscape:path-effect="#path-effect10"
     inkscape:original-d="m 219.83331,92.877905 c 2.93197,6.370321 5.86387,12.740495 8.79591,19.110955 1.52264,6.99357 3.04521,13.98682 4.56782,20.98023"
     sodipodi:nodetypes="ccc"
     transform="matrix(1.0784044,0,0,1.6379815,150.37736,-62.560758)" />
  <path
     style="fill:#000000;stroke:#000000;stroke-width:2.221;stroke-linecap:round"
     d="m 219.83331,92.877905 c 2.93197,6.370321 5.86387,12.740495 8.09121,19.422505 2.22734,6.68202 3.74991,13.67527 5.27252,20.66868"
     id="path10-9"
     class="shuttle-part"
     inkscape:path-effect="#path-effect10-3"
     inkscape:original-d="m 219.83331,92.877905 c 2.93197,6.370321 5.86387,12.740495 8.79591,19.110955 1.52264,6.99357 3.04521,13.98682 4.56782,20.98023"
     sodipodi:nodetypes="ccc"
     transform="matrix(1.0789953,0,0,1.6286419,105.17461,-61.313269)" />
  <path
     style="fill:#000000;stroke:#000000;stroke-width:2.221;stroke-linecap:round"
     d="m 219.83331,92.877905 c 2.93197,6.370321 5.86387,12.740495 8.09121,19.422505 2.22734,6.68202 3.74991,13.67527 5.27252,20.66868"
     id="path10-2"
     class="shuttle-part"
     inkscape:path-effect="#path-effect10-5"
     inkscape:original-d="m 219.83331,92.877905 c 2.93197,6.370321 5.86387,12.740495 8.79591,19.110955 1.52264,6.99357 3.04521,13.98682 4.56782,20.98023"
     sodipodi:nodetypes="ccc"
     transform="matrix(1.0819798,0,0,1.5819533,63.661175,-55.076915)" />
  <path
     style="fill:#000000;stroke:#000000;stroke-width:2.221;stroke-linecap:round"
     d="m 219.83331,92.877905 c 2.93197,6.370321 5.86387,12.740495 8.09121,19.422505 2.22734,6.68202 3.74991,13.67527 5.27252,20.66868"
     id="path10-9-2"
     class="shuttle-part"
     inkscape:path-effect="#path-effect10-3-0"
     inkscape:original-d="m 219.83331,92.877905 c 2.93197,6.370321 5.86387,12.740495 8.79591,19.110955 1.52264,6.99357 3.04521,13.98682 4.56782,20.98023"
     sodipodi:nodetypes="ccc"
     transform="matrix(1.0819798,0,0,1.5819533,18.592258,-55.076915)" />
  <path
     style="fill:#000000;stroke:#000000;stroke-width:2.221;stroke-linecap:round"
     d="m 219.83331,92.877905 c 2.93197,6.370321 5.86387,12.740495 8.09121,19.422505 2.22734,6.68202 3.74991,13.67527 5.27252,20.66868"
     id="path10-2-7"
     class="shuttle-part"
     inkscape:path-effect="#path-effect10-5-3"
     inkscape:original-d="m 219.83331,92.877905 c 2.93197,6.370321 5.86387,12.740495 8.79591,19.110955 1.52264,6.99357 3.04521,13.98682 4.56782,20.98023"
     sodipodi:nodetypes="ccc"
     transform="matrix(1.0805358,0,0,1.5540301,-28.311253,-51.345262)" />
  <path
     style="fill:#000000;stroke:#000000;stroke-width:2.221;stroke-linecap:round"
     d="m 219.83331,92.877905 c 2.93197,6.370321 5.86387,12.740495 8.09121,19.422505 2.22734,6.68202 3.74991,13.67527 5.27252,20.66868"
     id="path10-9-2-9"
     class="shuttle-part"
     inkscape:path-effect="#path-effect10-3-0-7"
     inkscape:original-d="m 219.83331,92.877905 c 2.93197,6.370321 5.86387,12.740495 8.79591,19.110955 1.52264,6.99357 3.04521,13.98682 4.56782,20.98023"
     sodipodi:nodetypes="ccc"
     transform="matrix(1.0823629,0,0,1.5260074,-73.809998,-44.550358)" />
  <path
     style="fill:#000000;stroke:#000000;stroke-width:2.221;stroke-linecap:round"
     d="m 209.62795,133.01693 c 69.0341,-0.56125 138.06821,-1.12251 207.10231,-1.68376"
     id="path11"
     class="shuttle-part"
     inkscape:path-effect="#path-effect11"
     inkscape:original-d="m 209.62795,133.01693 c 69.0341,-0.56125 138.06821,-1.1225 207.10231,-1.68376"
     transform="matrix(1.0755073,0,0,2.8011491,-46.707363,-213.15162)" />
  <rect
     style="opacity:0.7;fill:#87ffff;fill-opacity:0.743455;stroke:#000000;stroke-width:0.927706;stroke-linecap:round;stroke-dasharray:none"
     id="rect11"
     class="shuttle-part"
     width="19.577963"
     height="24.115299"
     x="295.30756"
     y="440.34888"
     ry="6.2693071"
     transform="matrix(0.59224348,-0.80575906,0.57444516,0.81854307,0,0)" />
  <rect
     style="opacity:0.7;fill:#87ffff;fill-opacity:0.743455;stroke:#000000;stroke-width:0.660464;stroke-linecap:round;stroke-dasharray:none"
     id="rect11-0"
     class="shuttle-part"
     width="13.891566"
     height="17.226065"
     x="448.39407"
     y="565.80695"
     ry="4.4782977"
     transform="matrix(0.45034903,-0.89285259,0.4338982,0.9009619,0,0)" />
  <path
     style="opacity:0.7;fill:#666666;fill-opacity:0.743455;stroke:#000000;stroke-width:1.121;stroke-linecap:round"
     d="m 60.188281,158.13443 c 0.37384,21.18428 0.747681,42.36856 1.121521,63.55284"
     id="path1"
     class="shuttle-part"
     inkscape:path-effect="#path-effect6"
     inkscape:original-d="m 60.188281,158.13443 c 0.373841,21.18428 0.747681,42.36856 1.121521,63.55284" />
  <path
     style="opacity:0.7;fill:#666666;fill-opacity:0.743455;stroke:#000000;stroke-width:1.121;stroke-linecap:round"
     d="m 71.403489,162.99435 c 0.298408,8.90986 0.596815,17.81972 0.846042,26.72958 0.249227,8.90986 0.449273,17.81972 0.649319,26.72958"
     id="path6"
     class="shuttle-part"
     inkscape:path-effect="#path-effect7"
     inkscape:original-d="m 71.403489,162.99435 c 0.298408,8.90986 0.596815,17.81972 0.895223,26.72958 0.200046,8.90986 0.400092,17.81972 0.600138,26.72958"
     sodipodi:nodetypes="ccc" />
  <path
     style="opacity:0.7;fill:none;fill-opacity:0.743455;stroke:#000000;stroke-width:1.121;stroke-linecap:round;stroke-opacity:0.729412"
     d="m 50.094594,159.62979 c 1.304101,9.50099 2.608206,19.002 2.545898,28.59723 -0.06231,9.59523 -1.491021,19.28469 -2.919738,28.97417"
     id="path7"
     class="shuttle-part"
     inkscape:path-effect="#path-effect9"
     inkscape:original-d="m 50.094594,159.62979 c 1.304102,9.50099 2.608205,19.002 3.912307,28.50299 -1.428715,9.68947 -2.85743,19.37893 -4.286147,29.06841"
     sodipodi:nodetypes="ccc"
     transform="matrix(1.0112177,0,0,0.93181644,-0.57414061,14.260365)" />
  <path
     style="opacity:0.7;fill:#ff7500;fill-opacity:0.972549;stroke:#000000;stroke-width:1.121;stroke-linecap:round;stroke-opacity:0"
     d="m 41.769192,173.11297 c -5.100102,6.10076 -13.944581,16.2364 -13.589414,23.82205 0.355166,7.58565 9.909596,12.62109 15.041984,14.65466 5.132387,2.03358 5.842512,1.06523 6.71406,-3.1957 0.871549,-4.26092 1.90446,-11.81408 1.872169,-19.94851 -0.03229,-8.13443 -1.129758,-16.84962 -2.356377,-20.17435 -1.226619,-3.32473 -2.582319,-1.2589 -7.682422,4.84185 z"
     id="path13"
     class="shuttle-part"
     inkscape:path-effect="#path-effect13"
     inkscape:original-d="m 45.513573,169.07808 c -8.844482,10.13565 -17.688963,20.27129 -26.533445,30.40694 9.554814,5.03565 19.109245,10.07109 28.663867,15.10663 0.710155,-0.96839 1.420282,-1.93674 2.130423,-2.90512 1.032953,-7.55347 2.065864,-15.10663 3.098796,-22.65995 -1.097512,-8.71554 -2.194981,-17.43073 -3.292471,-26.14609 -1.355751,2.0659 -2.711447,4.13173 -4.06717,6.19759 z"
     transform="matrix(1.2725531,0,0,0.99692092,-14.191581,0.58395527)" />
  <path
     style="opacity:1;fill:#434343;fill-opacity:1;stroke:#1f232a;stroke-width:0.73074728;stroke-linecap:round;stroke-dasharray:none;stroke-opacity:1"
     d="m 76.787551,136.52247 c -1.952231,-1.66323 -5.595886,1.52842 -8.693589,2.53917 -3.097702,1.01075 -5.649208,-0.1595 -6.142805,0.20417 -0.493597,0.36366 1.070721,2.26125 1.019995,3.96268 -0.05073,1.70142 -1.716498,3.20658 -0.711015,3.82814 1.005483,0.62155 4.682214,0.35952 7.961006,0.90651 3.278793,0.54699 6.159353,1.90293 7.469357,-0.67822 1.310005,-2.58115 1.049282,-9.09921 -0.902949,-10.76245 z"
     id="path14"
     class="shuttle-part"
     inkscape:path-effect="#path-effect14"
     inkscape:original-d="m 78.479054,131.66752 c -3.643733,3.19172 -7.28739,6.38337 -10.931203,9.57516 -2.55159,-1.17029 -5.103097,-2.34054 -7.654605,-3.51079 1.564317,1.89758 3.128634,3.79517 4.693,5.69282 -1.665821,1.5052 -3.33159,3.01036 -4.997359,4.51551 3.676733,-0.26204 7.353464,-0.52407 11.030309,-0.78612 2.880739,1.35603 5.761301,2.71197 8.642042,4.068 -0.260733,-6.51833 -0.521456,-13.03639 -0.782184,-19.55458 z"
     transform="matrix(1.4357099,0,0,1.6391176,-29.443174,-91.658204)"
     sodipodi:nodetypes="cccccccc" />
  <path
     style="opacity:0.7;fill:#60677a;fill-opacity:1;stroke:#070707;stroke-width:1.121;stroke-linecap:round;stroke-dasharray:none;stroke-opacity:1"
     d="m 79.38618,167.34246 c 0.263422,7.50783 0.526844,15.01567 0.790266,22.5235 0.03728,8.12884 0.07457,16.25768 0.11185,24.38651"
     id="path15"
     class="shuttle-part"
     inkscape:path-effect="#path-effect15"
     inkscape:original-d="m 79.38618,167.34246 c 0.263422,7.50783 0.790266,22.5235 0.790266,22.5235 0,0 0.07457,16.25768 0.11185,24.38651"
     sodipodi:nodetypes="ccc"
     transform="translate(0.98582138)" />
</svg>
